<svg id="Capa_1" enable-background="new 0 0 511.982 511.982" height="512" viewBox="0 0 511.982 511.982" width="512" xmlns="http://www.w3.org/2000/svg"><g><g><path d="m500.115 297.708c-5.224-13.161-18.661-20.917-32.666-18.86-5.029.738-9.98 1.723-14.852 2.919 4.06-17.213 6.115-34.892 6.115-52.767 0-66.145-28.603-129.048-78.474-172.582-4.16-3.631-10.477-3.204-14.11.958-3.632 4.161-3.203 10.478.958 14.11 18.131 15.826 33.17 34.464 44.718 54.969h-70.137c-6.094 0-11.756 2.742-15.536 7.523l-16.822 21.284c-6.595 8.344-10.227 18.796-10.227 29.432 0 26.172 21.293 47.465 47.465 47.465h34.522c7.47 0 14.473 3.993 18.277 10.421l28.185 47.624c-27.085 11.748-50.341 30.976-67.135 55.895-23.034-34.179-58.226-57.66-98.772-65.806l-4.514-10.915c-5.128-12.397-17.11-20.407-30.525-20.407h-54.712v-16.85c0-5.429 4.417-9.845 9.846-9.845h24.122c9.002 0 17.747-3.72 23.989-10.206 7.881-8.187 11.029-19.677 8.42-30.737s-10.56-19.933-21.269-23.735c-.961-.341-1.495-1.029-1.586-2.045s.311-1.788 1.196-2.295l20.986-12.03c14.482-8.302 22.527-24.969 20.019-41.474-3.283-21.6-22.865-36.708-44.598-34.395l-36.87 3.926c-2.337.25-4.586-.479-6.333-2.05-1.748-1.571-2.71-3.731-2.71-6.081v-31.564c19.781-6.226 40.819-9.59 62.628-9.59 21.469 0 42.634 3.24 62.908 9.631 5.267 1.66 10.883-1.265 12.544-6.531 1.66-5.268-1.264-10.883-6.531-12.544-22.223-7.004-45.411-10.556-68.922-10.556-61.168 0-118.675 23.82-161.928 67.073s-67.072 100.759-67.072 161.927 23.82 118.675 67.073 161.927 100.759 67.073 161.927 67.073c5.816 0 11.67-.23 17.466-.667 28.035 32.9 69.057 52.862 113.352 54.644.137.006-.132.005 0 0 0 .002-.001 0 0 0 54.037-2.174 102.686-31.39 129.689-78.16 24.071-41.693 27.679-91.303 9.896-136.109zm-119.046-85.549h-34.522c-15.145 0-27.465-12.321-27.465-27.465 0-6.154 2.102-12.202 5.917-17.03l16.763-21.208h79.941c11.092 25.792 17.01 53.831 17.01 82.545 0 12.03-1.023 23.959-3.041 35.69l-19.114-32.296c-7.387-12.482-20.985-20.236-35.489-20.236zm-142.441 64.864 1.191 2.879c-8.522 2.661-15.659 9.028-19.143 17.806-11.074 27.902-13.849 57.667-8.556 86.225l-18.918-5.871c-8.347-2.59-13.956-10.203-13.956-18.943v-23.42c0-10.395-3.981-20.232-11.209-27.701l-15.73-16.255v-22.771h74.277c5.294 0 10.021 3.16 12.044 8.051zm-91.545-239.98v24.111c0 7.98 3.403 15.617 9.337 20.953 5.933 5.335 13.887 7.908 21.823 7.066l36.87-3.926c11.066-1.177 21.036 6.515 22.708 17.512 1.277 8.403-2.819 16.89-10.193 21.117l-20.985 12.029c-7.683 4.404-11.962 12.619-11.169 21.439s6.47 16.139 14.815 19.101c4.341 1.541 7.437 4.996 8.494 9.479 1.058 4.483-.168 8.957-3.363 12.275-2.493 2.59-5.985 4.076-9.58 4.076h-24.122c-16.457 0-29.846 13.389-29.846 29.845v16.85h-.029l-47.723-51.014c-1.891-2.021-4.535-3.168-7.303-3.168h-34.006c-14.644 0-27.929-8.087-34.724-20.85 16.838-61.589 61.201-111.921 118.996-136.895zm82.629 400.957c-115.243 0-209-93.757-209-209 0-10.078.732-19.988 2.118-29.689 10.718 9.768 24.871 15.479 39.981 15.479h29.668l39.828 42.575v38.425c0 2.595 1.009 5.089 2.814 6.954l18.544 19.163c3.6 3.719 5.582 8.617 5.582 13.792v23.42c0 17.552 11.263 32.841 28.027 38.044l30.911 9.593c3.235 9.288 7.358 18.349 12.388 27.062.807 1.397 1.635 2.777 2.48 4.143-1.114.017-2.229.039-3.341.039zm18.181-14.183c-20.997-36.367-24.142-79.644-8.627-118.731 1.758-4.429 6.459-7.139 11.171-6.45 41.608 6.109 77.514 30.47 98.51 66.838.052.09.1.183.152.273-10.656 22.021-15.889 45.803-15.638 69.591l-21.951-38.021 7.62-28.437c1.43-5.335-1.736-10.818-7.071-12.248-5.337-1.43-10.818 1.736-12.248 7.071l-2.443 9.119-10.614-18.383c-2.762-4.784-8.878-6.422-13.66-3.66-4.783 2.761-6.422 8.877-3.66 13.66l10.499 18.185-8.805-2.359c-5.335-1.429-10.818 1.736-12.248 7.071s1.736 10.818 7.071 12.248l28.124 7.536 11.235 19.46-12.437-3.333c-5.334-1.43-10.818 1.736-12.248 7.071s1.736 10.818 7.071 12.248l31.756 8.509 22.429 38.847c-39.354-7.049-73.636-30.855-93.988-66.105zm225.005 0c-20.353 35.252-54.637 59.073-93.997 66.12l22.437-38.863 31.756-8.509c5.334-1.429 8.5-6.913 7.071-12.248-1.429-5.334-6.915-8.503-12.248-7.071l-12.438 3.333 11.235-19.46 28.124-7.536c5.334-1.429 8.5-6.913 7.071-12.248-1.43-5.334-6.913-8.503-12.248-7.071l-8.805 2.359 10.499-18.185c2.762-4.783 1.123-10.899-3.66-13.66-4.784-2.76-10.898-1.123-13.66 3.66l-10.614 18.383-2.443-9.118c-1.43-5.335-6.914-8.502-12.247-7.071-5.335 1.429-8.501 6.913-7.071 12.247l7.619 28.437-11.235 19.46-3.417-12.751c-1.43-5.334-6.914-8.503-12.248-7.071-5.334 1.429-8.5 6.913-7.071 12.248l8.593 32.069-22.323 38.664c-13.577-37.61-10.09-79.212 10.263-114.464 20.997-36.367 57.638-60.729 99.247-66.837.492-.072-.488-.107 0-.107 4.191 0 8.861 2.59 10.435 6.557 15.516 39.09 12.372 82.366-8.625 118.733z"/><circle cx="336.932" cy="38.213" r="10"/></g></g></svg>