<svg id="Capa_1" enable-background="new 0 0 512 512" height="512" viewBox="0 0 512 512" width="512" xmlns="http://www.w3.org/2000/svg"><g><g><g><path d="m256 15-10.667 251.667 10.667 230.333c133.101 0 241-107.899 241-241s-107.899-241-241-241z" fill="#f0e6e6"/><path d="m15 256c0 133.101 107.899 241 241 241v-482c-133.101 0-241 107.899-241 241z" fill="#fff7f4"/></g><g><path d="m512 256c0-68.38-26.629-132.667-74.98-181.019-48.353-48.352-112.64-74.981-181.02-74.981l-10.667 10.667 10.667 19.333c60.367 0 117.12 23.508 159.805 66.194 42.687 42.686 66.195 99.439 66.195 159.806s-23.508 117.12-66.194 159.806-99.439 66.194-159.806 66.194l-10.667 19.333 10.667 10.667c68.38 0 132.667-26.629 181.019-74.981s74.981-112.639 74.981-181.019z" fill="#ffc178"/><path d="m256 482c-60.367 0-117.12-23.508-159.806-66.194s-66.194-99.439-66.194-159.806 23.508-117.12 66.194-159.806 99.439-66.194 159.806-66.194v-30c-68.38 0-132.667 26.629-181.019 74.981s-74.981 112.639-74.981 181.019 26.628 132.667 74.98 181.019c48.353 48.352 112.64 74.981 181.02 74.981z" fill="#ffe278"/></g></g><g><g><path d="m256 416h30v-64.853h-40.667z" fill="#ff936b"/><path d="m226 351.147h30v64.853h-30z" fill="#ffc178"/></g><g><path d="m389.031 367-71.432-123.723h-61.599l-10.667 66.056 10.667 57.667z" fill="#00a78e"/><path d="m122.969 367h133.031v-123.723h-61.599z" fill="#5bc980"/></g><g><path d="m362.709 256.993-106.709-184.824-10.667 98.498 10.667 86.326z" fill="#5bc980"/><path d="m149.292 256.993h106.708v-184.824z" fill="#bee75e"/></g></g></g></svg>