<?xml version="1.0"?>
<svg xmlns="http://www.w3.org/2000/svg" viewBox="0 0 512 512" width="512" height="512"><g id="_07-map" data-name="07-map"><g id="filled_outline" data-name="filled outline"><path d="M503.862,102.935a12,12,0,0,0-9.559-2.814L427.969,109.6a107.995,107.995,0,0,0-215.76-4.217l-84.1,10.513L17.7,100.121A12,12,0,0,0,4,112V432a12,12,0,0,0,10.3,11.879l112,16c.056.008.114.006.17.013a11.891,11.891,0,0,0,1.216.092c.084,0,.169.013.254.013l.057,0a12.055,12.055,0,0,0,1.392-.087c.032,0,.064,0,.1-.006L256,444.093l126.512,15.814c.033,0,.067,0,.1.007A12.227,12.227,0,0,0,384,460c.36,0,.719-.022,1.078-.054.111-.01.222-.023.333-.036.095-.011.191-.017.286-.031l112-16A12,12,0,0,0,508,432V112A12,12,0,0,0,503.862,102.935ZM320,28a84.1,84.1,0,0,1,84,84c0,28.359-13.428,59.43-30.052,87.027-.034.052-.064.108-.1.161-18.829,31.219-41.724,57.975-53.851,71.3-12.105-13.3-34.937-39.985-53.745-71.129-.072-.118-.139-.238-.215-.353C249.422,171.415,236,140.353,236,112A84.1,84.1,0,0,1,320,28Zm52,406.407-104-13V245.065a490.038,490.038,0,0,0,43.515,51.42,12,12,0,0,0,16.97,0A490.038,490.038,0,0,0,372,245.065ZM140,138.593l73.3-9.162c3.884,27.094,16.111,54.712,30.7,79.5v212.48l-104,13ZM28,125.836l88,12.572V434.164L28,421.592ZM484,421.592l-88,12.572V208.927c13.744-23.352,25.392-49.22,29.943-74.8l58.057-8.3Z"/><path d="M320,319.029l-7.515-7.514a12,12,0,0,0-16.97,16.97L303.029,336l-7.514,7.515a12,12,0,1,0,16.97,16.97L320,352.971l7.515,7.514a12,12,0,0,0,16.97-16.97L336.971,336l7.514-7.515a12,12,0,0,0-16.97-16.97Z"/><path d="M320,172a60,60,0,1,0-60-60A60.068,60.068,0,0,0,320,172Zm0-96a36,36,0,1,1-36,36A36.04,36.04,0,0,1,320,76Z"/></g></g></svg>
