<svg id="Capa_1" enable-background="new 0 0 512 512" height="512" viewBox="0 0 512 512" width="512" xmlns="http://www.w3.org/2000/svg"><g><path d="m76 482h21.266c4.452 17.233 20.13 30 38.734 30h75c5.523 0 10-4.477 10-10s-4.477-10-10-10h-35v-50c0-44.112 35.888-80 80-80 44.209 0 80 35.76 80 80v50h-35c-5.522 0-10 4.477-10 10s4.478 10 10 10h75c18.604 0 34.282-12.767 38.734-30h21.266c22.056 0 40-17.944 40-40v-66c0-35.202-26.124-64.406-60-69.274v-137.992c17.233-4.452 30-20.13 30-38.734v-30c0-22.056-17.944-40-40-40h-80v-20c0-22.056-17.944-40-40-40h-60c-22.056 0-40 17.944-40 40v20h-80c-22.056 0-40 17.944-40 40v30c0 18.604 12.767 34.282 30 38.734v137.992c-33.877 4.868-60 34.072-60 69.274v66c0 22.056 17.944 40 40 40zm40-312h280v26c0 27.57-22.43 50-50 50h-50v-20c0-5.523-4.478-10-10-10h-60c-5.523 0-10 4.477-10 10v20h-50c-27.57 0-50-22.43-50-50zm220-90v70h-160v-70zm-60 176c0 11.028-8.972 20-20 20s-20-8.972-20-20v-20h40zm-20 86c-32.676 0-61.741 15.755-80 40.066v-116.066h41.266c4.452 17.233 20.13 30 38.734 30s34.282-12.767 38.734-30h41.266v115.973c-18.683-24.784-47.691-39.973-80-39.973zm200 34v66c0 11.028-8.972 20-20 20h-20v-134.994c22.795 4.646 40 24.848 40 48.994zm-60 96c0 11.028-8.972 20-20 20h-20c0-5.959 0-220.466 0-226.726 15.567-2.237 29.49-9.613 40-20.351zm30-372v30c0 11.028-8.972 20-20 20h-50v-70h50c11.028 0 20 8.972 20 20zm-220-60c0-11.028 8.972-20 20-20h60c11.028 0 20 8.972 20 20v20h-100zm-120 90v-30c0-11.028 8.972-20 20-20h50v70h-50c-11.028 0-20-8.972-20-20zm70 135.274v226.726h-20c-11.028 0-20-8.972-20-20v-227.077c10.509 10.738 24.433 18.114 40 20.351zm-100 110.726c0-24.146 17.205-44.348 40-48.994v134.994h-20c-11.028 0-20-8.972-20-20z"/><path d="m296 412c0-5.523-4.478-10-10-10h-60c-5.523 0-10 4.477-10 10s4.477 10 10 10h60c5.522 0 10-4.477 10-10z"/><circle cx="256" cy="502" r="10"/></g></svg>